<svg width="32" height="32" viewBox="0 0 32 32" fill="none" xmlns="http://www.w3.org/2000/svg">
<g clip-path="url(#clip0_1_1568)">
<path fill-rule="evenodd" clip-rule="evenodd" d="M7.04515 4.13037C6.27223 4.13037 5.53097 4.43741 4.98443 4.98395C4.4379 5.53048 4.13086 6.27174 4.13086 7.04466V9.48751C4.13086 9.65636 4.16412 9.82355 4.22873 9.97954C4.29334 10.1355 4.38805 10.2773 4.50744 10.3967C4.62683 10.516 4.76856 10.6107 4.92455 10.6754C5.08054 10.74 5.24773 10.7732 5.41657 10.7732C5.58542 10.7732 5.75261 10.74 5.9086 10.6754C6.06459 10.6107 6.20632 10.516 6.32571 10.3967C6.4451 10.2773 6.53981 10.1355 6.60442 9.97954C6.66903 9.82355 6.70229 9.65636 6.70229 9.48751V7.04466C6.70229 6.95373 6.73841 6.86652 6.80271 6.80222C6.86701 6.73792 6.95421 6.7018 7.04515 6.7018H9.488C9.65684 6.7018 9.82403 6.66854 9.98002 6.60393C10.136 6.53932 10.2778 6.44461 10.3971 6.32522C10.5165 6.20583 10.6112 6.0641 10.6758 5.90811C10.7405 5.75212 10.7737 5.58493 10.7737 5.41609C10.7737 5.24724 10.7405 5.08005 10.6758 4.92406C10.6112 4.76807 10.5165 4.62634 10.3971 4.50695C10.2778 4.38756 10.136 4.29285 9.98002 4.22824C9.82403 4.16363 9.65684 4.13037 9.488 4.13037H7.04515ZM10.8509 8.70751C9.668 8.70751 8.708 9.66751 8.708 10.8504V14.4041C8.708 15.5869 9.668 16.5469 10.8509 16.5469H14.4046C15.5874 16.5469 16.5474 15.5869 16.5474 14.4041V10.8504C16.5474 9.66751 15.5874 8.70751 14.4046 8.70751H10.8509ZM11.2794 13.9755V11.2789H13.976V13.9755H11.2794ZM21.2274 5.41609C21.2274 5.07509 21.3629 4.74807 21.604 4.50695C21.8451 4.26583 22.1722 4.13037 22.5131 4.13037H24.956C25.7289 4.13037 26.4702 4.43741 27.0167 4.98395C27.5632 5.53048 27.8703 6.27174 27.8703 7.04466V9.48751C27.8703 9.82851 27.7348 10.1555 27.4937 10.3967C27.2526 10.6378 26.9256 10.7732 26.5846 10.7732C26.2436 10.7732 25.9166 10.6378 25.6754 10.3967C25.4343 10.1555 25.2989 9.82851 25.2989 9.48751V7.04466C25.2989 6.95373 25.2627 6.86652 25.1984 6.80222C25.1341 6.73792 25.0469 6.7018 24.956 6.7018H22.5131C22.1722 6.7018 21.8451 6.56634 21.604 6.32522C21.3629 6.0841 21.2274 5.75708 21.2274 5.41609ZM6.70229 22.5144C6.70229 22.1734 6.56683 21.8464 6.32571 21.6052C6.08459 21.3641 5.75757 21.2287 5.41657 21.2287C5.07558 21.2287 4.74855 21.3641 4.50744 21.6052C4.26632 21.8464 4.13086 22.1734 4.13086 22.5144V24.9572C4.13086 25.7301 4.4379 26.4714 4.98443 27.0179C5.53097 27.5645 6.27223 27.8715 7.04515 27.8715H9.488C9.82899 27.8715 10.156 27.7361 10.3971 27.4949C10.6383 27.2538 10.7737 26.9268 10.7737 26.5858C10.7737 26.2448 10.6383 25.9178 10.3971 25.6767C10.156 25.4355 9.82899 25.3001 9.488 25.3001H7.04515C6.95421 25.3001 6.86701 25.264 6.80271 25.1997C6.73841 25.1354 6.70229 25.0482 6.70229 24.9572V22.5144ZM26.5846 21.2287C26.9256 21.2287 27.2526 21.3641 27.4937 21.6052C27.7348 21.8464 27.8703 22.1734 27.8703 22.5144V24.9572C27.8703 25.7301 27.5632 26.4714 27.0167 27.0179C26.4702 27.5645 25.7289 27.8715 24.956 27.8715H22.5131C22.1722 27.8715 21.8451 27.7361 21.604 27.4949C21.3629 27.2538 21.2274 26.9268 21.2274 26.5858C21.2274 26.2448 21.3629 25.9178 21.604 25.6767C21.8451 25.4355 22.1722 25.3001 22.5131 25.3001H24.956C25.0469 25.3001 25.1341 25.264 25.1984 25.1997C25.2627 25.1354 25.2989 25.0482 25.2989 24.9572V22.5144C25.2989 22.1734 25.4343 21.8464 25.6754 21.6052C25.9166 21.3641 26.2436 21.2287 26.5846 21.2287ZM11.2794 19.7544C11.2794 19.4134 11.144 19.0864 10.9029 18.8452C10.6617 18.6041 10.3347 18.4687 9.99372 18.4687C9.65272 18.4687 9.3257 18.6041 9.08458 18.8452C8.84346 19.0864 8.708 19.4134 8.708 19.7544V22.0069C8.708 22.7167 9.284 23.2927 9.99372 23.2927H12.2463C12.5873 23.2927 12.9143 23.1572 13.1554 22.9161C13.3965 22.675 13.532 22.3479 13.532 22.0069C13.532 21.6659 13.3965 21.3389 13.1554 21.0978C12.9143 20.8567 12.5873 20.7212 12.2463 20.7212H11.2794V19.7544ZM13.7823 19.7544C13.7823 19.4134 13.9177 19.0864 14.1589 18.8452C14.4 18.6041 14.727 18.4687 15.068 18.4687H16.0006C16.3416 18.4687 16.6686 18.6041 16.9097 18.8452C17.1508 19.0864 17.2863 19.4134 17.2863 19.7544V22.0069C17.2863 22.3479 17.1508 22.675 16.9097 22.9161C16.6686 23.1572 16.3416 23.2927 16.0006 23.2927C15.6596 23.2927 15.3326 23.1572 15.0914 22.9161C14.8503 22.675 14.7149 22.3479 14.7149 22.0069V20.9904C14.4465 20.9137 14.2104 20.7518 14.0422 20.5292C13.8739 20.3065 13.7827 20.0352 13.7823 19.7561V19.7544ZM21.0406 9.99323C21.0406 9.65224 20.9051 9.32521 20.664 9.08409C20.4229 8.84297 20.0959 8.70751 19.7549 8.70751C19.4139 8.70751 19.0868 8.84297 18.8457 9.08409C18.6046 9.32521 18.4691 9.65224 18.4691 9.99323V12.2458C18.4691 12.9555 19.0451 13.5315 19.7549 13.5315H22.0074C22.3484 13.5315 22.6754 13.3961 22.9166 13.1549C23.1577 12.9138 23.2931 12.5868 23.2931 12.2458C23.2931 11.9048 23.1577 11.5778 22.9166 11.3367C22.6754 11.0955 22.3484 10.9601 22.0074 10.9601H21.0406V9.99323ZM18.4691 16.0001C18.4691 15.6591 18.6046 15.3321 18.8457 15.0909C19.0868 14.8498 19.4139 14.7144 19.7549 14.7144H22.0074C22.3484 14.7144 22.6754 14.8498 22.9166 15.0909C23.1577 15.3321 23.2931 15.6591 23.2931 16.0001V17.0955C23.2939 17.4205 23.1716 17.7337 22.9507 17.9722C22.7299 18.2106 22.4269 18.3566 22.1028 18.3807C21.7787 18.4048 21.4575 18.3053 21.2038 18.1022C20.9501 17.899 20.7828 17.6073 20.7354 17.2858H19.7549C19.4139 17.2858 19.0868 17.1503 18.8457 16.9092C18.6046 16.6681 18.4691 16.3411 18.4691 16.0001ZM21.0406 19.7544C21.0406 19.4134 20.9051 19.0864 20.664 18.8452C20.4229 18.6041 20.0959 18.4687 19.7549 18.4687C19.4139 18.4687 19.0868 18.6041 18.8457 18.8452C18.6046 19.0864 18.4691 19.4134 18.4691 19.7544V22.0069C18.4691 22.7167 19.0451 23.2927 19.7549 23.2927H22.0074C22.3484 23.2927 22.6754 23.1572 22.9166 22.9161C23.1577 22.675 23.2931 22.3479 23.2931 22.0069C23.2931 21.6659 23.1577 21.3389 22.9166 21.0978C22.6754 20.8567 22.3484 20.7212 22.0074 20.7212H21.0406V19.7544Z" fill="#6686FF"/>
</g>
<defs>
<clipPath id="clip0_1_1568">
<rect width="24" height="24" fill="white" transform="translate(4 4)"/>
</clipPath>
</defs>
</svg>
