<svg width="76" height="76" viewBox="0 0 76 76" fill="none" xmlns="http://www.w3.org/2000/svg">
<path d="M30.02 10.9844C24.657 8.42388 17.1609 7.16959 7.12501 7.12505C6.17852 7.1122 5.25061 7.38819 4.46501 7.91623C3.82018 8.35208 3.29233 8.93971 2.92789 9.62744C2.56345 10.3152 2.37359 11.0819 2.37501 11.8602V54.3282C2.37501 57.199 4.41751 59.3647 7.12501 59.3647C17.6745 59.3647 28.2566 60.3503 34.5948 66.3412C34.6816 66.4236 34.7905 66.4786 34.9083 66.4995C35.026 66.5204 35.1473 66.5063 35.257 66.4588C35.3668 66.4114 35.4601 66.3327 35.5256 66.2327C35.591 66.1326 35.6256 66.0155 35.625 65.8959V15.8561C35.6252 15.5186 35.5529 15.1848 35.4131 14.8776C35.2733 14.5703 35.0692 14.2966 34.8145 14.0749C33.3627 12.8337 31.75 11.7942 30.02 10.9844ZM71.535 7.91177C70.749 7.38505 69.8211 7.1106 68.875 7.12505C58.8391 7.16959 51.3431 8.41795 45.98 10.9844C44.2501 11.7927 42.637 12.8302 41.184 14.069C40.9299 14.291 40.7262 14.5648 40.5866 14.872C40.4471 15.1792 40.375 15.5128 40.375 15.8502V65.8929C40.3749 66.0078 40.4088 66.1202 40.4723 66.2159C40.5359 66.3116 40.6263 66.3865 40.7322 66.431C40.8381 66.4756 40.9548 66.4879 41.0676 66.4663C41.1805 66.4448 41.2845 66.3905 41.3666 66.3101C45.177 62.5249 51.8641 59.3602 68.881 59.3617C70.1407 59.3617 71.3489 58.8613 72.2397 57.9705C73.1305 57.0797 73.631 55.8715 73.631 54.6117V11.8617C73.6327 11.0818 73.4424 10.3136 73.0768 9.62468C72.7113 8.9358 72.1818 8.34752 71.535 7.91177Z" fill="#2E56F5"/>
</svg>
