<svg width="16" height="16" viewBox="0 0 16 16" fill="none" xmlns="http://www.w3.org/2000/svg">
<path d="M12.6663 2.66683H11.333V2.00016C11.333 1.82335 11.2628 1.65378 11.1377 1.52876C11.0127 1.40373 10.8432 1.3335 10.6663 1.3335C10.4895 1.3335 10.32 1.40373 10.1949 1.52876C10.0699 1.65378 9.99967 1.82335 9.99967 2.00016V2.66683H5.99967V2.00016C5.99967 1.82335 5.92944 1.65378 5.80441 1.52876C5.67939 1.40373 5.50982 1.3335 5.33301 1.3335C5.1562 1.3335 4.98663 1.40373 4.8616 1.52876C4.73658 1.65378 4.66634 1.82335 4.66634 2.00016V2.66683H3.33301C2.80257 2.66683 2.29387 2.87754 1.91879 3.25262C1.54372 3.62769 1.33301 4.1364 1.33301 4.66683V12.6668C1.33301 13.1973 1.54372 13.706 1.91879 14.081C2.29387 14.4561 2.80257 14.6668 3.33301 14.6668H12.6663C13.1968 14.6668 13.7055 14.4561 14.0806 14.081C14.4556 13.706 14.6663 13.1973 14.6663 12.6668V4.66683C14.6663 4.1364 14.4556 3.62769 14.0806 3.25262C13.7055 2.87754 13.1968 2.66683 12.6663 2.66683ZM13.333 12.6668C13.333 12.8436 13.2628 13.0132 13.1377 13.1382C13.0127 13.2633 12.8432 13.3335 12.6663 13.3335H3.33301C3.1562 13.3335 2.98663 13.2633 2.8616 13.1382C2.73658 13.0132 2.66634 12.8436 2.66634 12.6668V8.00016H13.333V12.6668ZM13.333 6.66683H2.66634V4.66683C2.66634 4.49002 2.73658 4.32045 2.8616 4.19542C2.98663 4.0704 3.1562 4.00016 3.33301 4.00016H4.66634V4.66683C4.66634 4.84364 4.73658 5.01321 4.8616 5.13823C4.98663 5.26326 5.1562 5.3335 5.33301 5.3335C5.50982 5.3335 5.67939 5.26326 5.80441 5.13823C5.92944 5.01321 5.99967 4.84364 5.99967 4.66683V4.00016H9.99967V4.66683C9.99967 4.84364 10.0699 5.01321 10.1949 5.13823C10.32 5.26326 10.4895 5.3335 10.6663 5.3335C10.8432 5.3335 11.0127 5.26326 11.1377 5.13823C11.2628 5.01321 11.333 4.84364 11.333 4.66683V4.00016H12.6663C12.8432 4.00016 13.0127 4.0704 13.1377 4.19542C13.2628 4.32045 13.333 4.49002 13.333 4.66683V6.66683Z" fill="#2E56F5"/>
</svg>
