<svg width="36" height="36" viewBox="0 0 36 36" fill="none" xmlns="http://www.w3.org/2000/svg">
<path d="M18 9C18 9.79565 18.3161 10.5587 18.8787 11.1213C19.4413 11.6839 20.2044 12 21 12C21.7956 12 22.5587 11.6839 23.1213 11.1213C23.6839 10.5587 24 9.79565 24 9M18 9C18 8.20435 18.3161 7.44129 18.8787 6.87868C19.4413 6.31607 20.2044 6 21 6C21.7956 6 22.5587 6.31607 23.1213 6.87868C23.6839 7.44129 24 8.20435 24 9M18 9H6M24 9H30M9 18C9 18.7956 9.31607 19.5587 9.87868 20.1213C10.4413 20.6839 11.2044 21 12 21C12.7956 21 13.5587 20.6839 14.1213 20.1213C14.6839 19.5587 15 18.7956 15 18M9 18C9 17.2044 9.31607 16.4413 9.87868 15.8787C10.4413 15.3161 11.2044 15 12 15C12.7956 15 13.5587 15.3161 14.1213 15.8787C14.6839 16.4413 15 17.2044 15 18M9 18H6M15 18H30M22.5 27C22.5 27.7956 22.8161 28.5587 23.3787 29.1213C23.9413 29.6839 24.7044 30 25.5 30C26.2956 30 27.0587 29.6839 27.6213 29.1213C28.1839 28.5587 28.5 27.7956 28.5 27M22.5 27C22.5 26.2044 22.8161 25.4413 23.3787 24.8787C23.9413 24.3161 24.7044 24 25.5 24C26.2956 24 27.0587 24.3161 27.6213 24.8787C28.1839 25.4413 28.5 26.2044 28.5 27M22.5 27H6M28.5 27H30" stroke="#434343" stroke-width="2" stroke-linecap="round" stroke-linejoin="round"/>
</svg>
