<svg width="80" height="80" viewBox="0 0 80 80" fill="none" xmlns="http://www.w3.org/2000/svg">
<path d="M71.5785 40.0001C71.5785 51.2495 46.2683 60.369 35.0413 60.369C23.8144 60.369 30.9219 51.2495 30.9219 40.0001C30.9219 28.7506 23.8144 19.6311 35.0413 19.6311C46.2683 19.6311 71.5785 28.7506 71.5785 40.0001Z" fill="#ABABAB"/>
<path d="M25.9081 40.0001C25.9081 48.1484 20.3904 54.7539 12.2583 54.7539C4.12628 54.7539 11.7409 48.1484 11.7409 40.0001C11.7409 31.8518 4.12628 25.2463 12.2583 25.2463C20.3904 25.2463 25.9081 31.8518 25.9081 40.0001Z" fill="#ABABAB"/>
<g filter="url(#filter0_i_361_6671)">
<path d="M30.9228 40C30.9228 51.2495 23.8154 60.369 35.0424 60.369C41.6667 60.369 53.1936 57.1938 61.5316 52.2799C56.9081 45.2922 45.0114 40.2487 30.9226 39.9639C30.9226 39.9759 30.9228 39.988 30.9228 40Z" fill="#ABABAB"/>
</g>
<defs>
<filter id="filter0_i_361_6671" x="28.7041" y="39.9639" width="32.8271" height="20.405" filterUnits="userSpaceOnUse" color-interpolation-filters="sRGB">
<feFlood flood-opacity="0" result="BackgroundImageFix"/>
<feBlend mode="normal" in="SourceGraphic" in2="BackgroundImageFix" result="shape"/>
<feColorMatrix in="SourceAlpha" type="matrix" values="0 0 0 0 0 0 0 0 0 0 0 0 0 0 0 0 0 0 127 0" result="hardAlpha"/>
<feOffset/>
<feGaussianBlur stdDeviation="5"/>
<feComposite in2="hardAlpha" operator="arithmetic" k2="-1" k3="1"/>
<feColorMatrix type="matrix" values="0 0 0 0 0 0 0 0 0 0 0 0 0 0 0 0 0 0 0.25 0"/>
<feBlend mode="normal" in2="shape" result="effect1_innerShadow_361_6671"/>
</filter>
</defs>
</svg>
