<svg width="117" height="98" viewBox="0 0 117 98" fill="none" xmlns="http://www.w3.org/2000/svg">
<g clip-path="url(#clip0_356_4701)">
<path d="M33.4965 57.7715C32.1803 61.3715 33.6764 65.2155 37.0327 67.0652C41.0948 69.3036 47.5478 72.6686 56.8886 77.0243C66.2281 81.3794 72.9551 84.1603 77.2809 85.8332C80.8566 87.2159 84.7615 85.8906 86.6732 82.5682C88.6502 79.1307 91.434 73.9276 94.8546 66.592C98.2753 59.2563 100.471 53.7808 101.834 50.0553C103.151 46.4553 101.654 42.6114 98.2981 40.7617C94.236 38.5232 87.783 35.1583 78.4422 30.8026C69.1027 26.4475 62.3757 23.6665 58.0499 21.9936C54.4742 20.6109 50.5693 21.9363 48.6575 25.2586C46.6805 28.6962 43.8968 33.8992 40.4762 41.2349C37.0555 48.5705 34.8591 54.0474 33.4965 57.7715Z" fill="#BFCCFF"/>
<path d="M38.9138 44.6421C39.404 43.5555 39.9248 42.4197 40.4762 41.2347C43.8969 33.899 46.68 28.6974 48.6576 25.2585C50.5693 21.9361 54.4757 20.6114 58.05 21.9934C62.3758 23.6663 69.1014 26.4467 78.4422 30.8024C87.7817 35.1575 94.2361 38.523 98.2982 40.7615C99.2693 41.2946 100.118 42.0248 100.791 42.9052C101.493 40.4091 102.141 37.898 102.734 35.3737C103.575 31.7525 101.675 28.1987 98.1928 26.7833C93.9867 25.0735 87.3273 22.5524 77.7489 19.4266C68.1705 16.3007 61.3075 14.4079 56.904 13.3062C53.2587 12.3958 49.6425 14.1488 48.2054 17.575C46.6335 21.3222 44.4249 27.0665 41.7974 35.1858C40.6446 38.7512 39.6938 41.8976 38.9138 44.6421Z" fill="white"/>
<path d="M67.2623 55.0874C66.2971 57.4625 67.2381 60.0479 69.5042 61.2469C70.8197 61.9431 72.5173 62.796 74.6462 63.7887C76.3774 64.6011 78.1288 65.3697 79.8986 66.094C82.2724 67.0585 84.8591 66.1181 86.0582 63.8521C86.7544 62.5365 87.6072 60.8389 88.6 58.71C89.4121 56.9792 90.1805 55.2284 90.9046 53.459C91.8698 51.0838 90.9294 48.4971 88.6627 47.2994C86.9704 46.4087 85.2561 45.5607 83.5212 44.7563C81.7905 43.9442 80.0396 43.1757 78.2702 42.4517C75.8951 41.4865 73.3083 42.4268 72.1106 44.6936C71.2199 46.3858 70.3719 48.1001 69.5675 49.835C68.5748 51.9639 67.8239 53.7091 67.2623 55.0874Z" fill="white"/>
<path d="M102.691 35.3158C103.525 31.7142 101.62 28.1746 98.1439 26.7604C93.9426 25.0512 87.2912 22.5305 77.7255 19.4023C68.1612 16.2747 61.308 14.3783 56.9105 13.2744C53.2719 12.3605 49.666 14.0984 48.2378 17.5056C46.6766 21.2297 44.4832 26.938 41.8772 35.0111C40.6993 38.6624 39.7348 41.8736 38.9472 44.6593" stroke="#2A4EDB" stroke-width="3" stroke-linecap="round" stroke-linejoin="round"/>
<path d="M33.4965 57.7715C32.1803 61.3715 33.6764 65.2155 37.0327 67.0652C41.0948 69.3036 47.5478 72.6686 56.8886 77.0243C66.2281 81.3794 72.9551 84.1603 77.2809 85.8332C80.8566 87.2159 84.7615 85.8906 86.6732 82.5682C88.6502 79.1307 91.434 73.9276 94.8546 66.592C98.2753 59.2563 100.471 53.7808 101.834 50.0553C103.151 46.4553 101.654 42.6114 98.2981 40.7617C94.236 38.5232 87.783 35.1583 78.4422 30.8026C69.1027 26.4475 62.3757 23.6665 58.0499 21.9936C54.4742 20.6109 50.5693 21.9363 48.6575 25.2586C46.6805 28.6962 43.8968 33.8992 40.4762 41.2349C37.0555 48.5705 34.8591 54.0474 33.4965 57.7715Z" stroke="#2A4EDB" stroke-width="3" stroke-linejoin="round"/>
<path d="M65.2136 37.8746L54.3379 32.8032M57.6065 54.1882L46.7308 49.1168M80.9921 75.0235L42.9272 57.2735M61.41 46.0314L50.5343 40.96" stroke="#2A4EDB" stroke-width="2" stroke-linecap="round" stroke-linejoin="round"/>
<path d="M67.2623 55.0874C66.2971 57.4625 67.2381 60.0479 69.5042 61.2469C70.8197 61.9431 72.5173 62.796 74.6462 63.7887C76.3774 64.6011 78.1288 65.3697 79.8986 66.094C82.2724 67.0585 84.8591 66.1181 86.0582 63.8521C86.7544 62.5365 87.6072 60.8389 88.6 58.71C89.4121 56.9792 90.1805 55.2284 90.9046 53.459C91.8698 51.0838 90.9294 48.4971 88.6627 47.2994C86.9704 46.4087 85.2561 45.5607 83.5212 44.7563C81.7905 43.9442 80.0396 43.1757 78.2702 42.4517C75.8951 41.4865 73.3083 42.4268 72.1106 44.6936C71.2199 46.3858 70.3719 48.1001 69.5675 49.835C68.5748 51.9639 67.8239 53.7091 67.2623 55.0874Z" stroke="#2A4EDB" stroke-width="2" stroke-linejoin="round"/>
</g>
<path d="M21.9619 68.3216L18.6626 65.0234L4.64041 79.0456L7.93974 82.3438L21.9619 68.3216Z" fill="#656565"/>
<path d="M32.6663 72.9998C22.357 72.9998 13.9997 64.6425 13.9997 54.3332C13.9997 44.0239 22.357 35.6665 32.6663 35.6665C42.9757 35.6665 51.333 44.0239 51.333 54.3332C51.333 64.6425 42.9757 72.9998 32.6663 72.9998Z" fill="#656565"/>
<path d="M18.1416 72.23L14.8434 68.9307L4.6981 79.076L7.99744 82.3753L18.1416 72.23Z" fill="#5A5A5A"/>
<path d="M32.6663 69.4998C24.29 69.4998 17.4997 62.7095 17.4997 54.3332C17.4997 45.9569 24.29 39.1665 32.6663 39.1665C41.0427 39.1665 47.833 45.9569 47.833 54.3332C47.833 62.7095 41.0427 69.4998 32.6663 69.4998Z" fill="#95ABFF"/>
<path d="M24.6166 47.5668C26.5999 45.2335 29.5166 43.8335 32.6666 43.8335C35.8166 43.8335 38.7333 45.2335 40.7166 47.5668C41.1833 48.0335 41.0666 48.8502 40.5999 49.2002C40.1333 49.6668 39.3166 49.5502 38.9666 49.0835C37.3333 47.2168 35.1166 46.1668 32.6666 46.1668C30.2166 46.1668 27.9999 47.2168 26.3666 49.0835C26.1333 49.3168 25.7833 49.5502 25.4333 49.5502C25.1999 49.5502 24.8499 49.4335 24.7333 49.3168C24.2666 48.8502 24.2666 48.0335 24.6166 47.5668Z" fill="#D8EDFF"/>
<g clip-path="url(#clip1_356_4701)">
<path fill-rule="evenodd" clip-rule="evenodd" d="M33.6901 17.3252L32.0001 13.4932L30.3101 17.3252L26.4766 19.0152L30.3101 20.7052L32.0001 24.5392L33.6901 20.7052L37.5236 19.0152L33.6901 17.3252Z" fill="#FFCC00"/>
</g>
<g clip-path="url(#clip2_356_4701)">
<path fill-rule="evenodd" clip-rule="evenodd" d="M26.4862 28.5229L25.5004 26.2876L24.5145 28.5229L22.2783 29.5088L24.5145 30.4946L25.5004 32.7311L26.4862 30.4946L28.7224 29.5088L26.4862 28.5229Z" fill="#FFCC00"/>
</g>
<defs>
<clipPath id="clip0_356_4701">
<rect width="72" height="72" fill="white" transform="translate(51.4287) rotate(25)"/>
</clipPath>
<clipPath id="clip1_356_4701">
<rect width="12" height="12" fill="white" transform="translate(26 13)"/>
</clipPath>
<clipPath id="clip2_356_4701">
<rect width="7" height="7" fill="white" transform="translate(22 26)"/>
</clipPath>
</defs>
</svg>
