<svg width="160" height="62" viewBox="0 0 160 62" fill="none" xmlns="http://www.w3.org/2000/svg">
<path d="M3.13184 12.4599H27.0201V18.6699H10.6439V27.484H25.4425V33.6689H10.6439V48.7179H3.13184V12.4599Z" fill="black"/>
<path d="M42.0541 48.7179H34.5421V12.4599H42.0541V48.7179Z" fill="black"/>
<path d="M81.0014 48.7179H74.491L58.5655 25.6811H58.2901V48.7179H50.7781V12.4599H57.3886L73.1889 35.4717H73.5144V12.4599H81.0014V48.7179Z" fill="black"/>
<path d="M93.1058 48.7179V42.2576H102.195C104.532 42.2576 106.477 41.8403 108.03 41.0056C109.582 40.1709 110.751 38.8939 111.535 37.1745C112.32 35.4384 112.712 33.2348 112.712 30.5639C112.712 27.893 112.32 25.6978 111.535 23.9784C110.767 22.2422 109.607 20.9652 108.055 20.1472C106.502 19.3293 104.566 18.9203 102.245 18.9203H92.9305V12.4599H102.621C106.26 12.4599 109.399 13.1861 112.036 14.6384C114.69 16.074 116.719 18.1524 118.121 20.8734C119.54 23.5944 120.249 26.8246 120.249 30.5639C120.249 34.3199 119.54 37.5584 118.121 40.2794C116.702 43.0005 114.657 45.0871 111.986 46.5395C109.332 47.9918 106.177 48.7179 102.521 48.7179H93.1058ZM97.2624 48.7179H89.7504V12.4599H97.2624V48.7179Z" fill="black"/>
<path d="M124.191 48.7179L136.711 12.4599H146.376L158.921 48.7179H150.833L141.694 20.648H141.393L132.228 48.7179H124.191ZM151.184 34.4701V40.3546H131.828V34.4701H151.184Z" fill="black"/>
<path d="M89.6201 12.3077H103.723C112.927 12.3077 120.389 19.7696 120.389 28.9743V32.0513C120.389 41.256 112.927 48.7179 103.723 48.7179H89.6201V12.3077Z" fill="#6686FF"/>
<g filter="url(#filter0_i_320_4985)">
<path d="M100.257 25.641C108.045 25.6411 114.359 31.955 114.359 39.7436C114.359 41.9703 113.842 44.076 112.923 45.9486C110.286 47.6977 107.124 48.7182 103.723 48.7182H89.6201V30.4828C92.2055 27.5159 96.0124 25.641 100.257 25.641Z" fill="#2E56F5"/>
</g>
<defs>
<filter id="filter0_i_320_4985" x="89.6201" y="25.641" width="24.7393" height="23.0771" filterUnits="userSpaceOnUse" color-interpolation-filters="sRGB">
<feFlood flood-opacity="0" result="BackgroundImageFix"/>
<feBlend mode="normal" in="SourceGraphic" in2="BackgroundImageFix" result="shape"/>
<feColorMatrix in="SourceAlpha" type="matrix" values="0 0 0 0 0 0 0 0 0 0 0 0 0 0 0 0 0 0 127 0" result="hardAlpha"/>
<feOffset/>
<feGaussianBlur stdDeviation="2.5641"/>
<feComposite in2="hardAlpha" operator="arithmetic" k2="-1" k3="1"/>
<feColorMatrix type="matrix" values="0 0 0 0 0 0 0 0 0 0 0 0 0 0 0 0 0 0 0.25 0"/>
<feBlend mode="normal" in2="shape" result="effect1_innerShadow_320_4985"/>
</filter>
</defs>
</svg>
