<svg width="68" height="68" viewBox="0 0 68 68" fill="none" xmlns="http://www.w3.org/2000/svg">
<path d="M33.9994 62.3332C37.7208 62.3378 41.4065 61.607 44.8447 60.1828C48.2828 58.7586 51.4057 56.6691 54.0339 54.0344C56.6686 51.4062 58.7581 48.2833 60.1823 44.8452C61.6065 41.407 62.3373 37.7213 62.3327 33.9999C62.3373 30.2784 61.6065 26.5927 60.1823 23.1546C58.7581 19.7164 56.6686 16.5935 54.0339 13.9654C51.4057 11.3306 48.2828 9.24109 44.8447 7.81691C41.4065 6.39272 37.7208 5.66194 33.9994 5.66653C30.2779 5.66194 26.5922 6.39272 23.1541 7.81691C19.7159 9.24109 16.593 11.3306 13.9649 13.9654C11.3301 16.5935 9.2406 19.7164 7.81642 23.1546C6.39224 26.5927 5.66145 30.2784 5.66604 33.9999C5.66145 37.7213 6.39224 41.407 7.81642 44.8452C9.2406 48.2833 11.3301 51.4062 13.9649 54.0344C16.593 56.6691 19.7159 58.7586 23.1541 60.1828C26.5922 61.607 30.2779 62.3378 33.9994 62.3332Z" stroke="#6686FF" stroke-width="5" stroke-linejoin="round"/>
<path d="M22.666 34L31.166 42.5L48.166 25.5" stroke="#6686FF" stroke-width="5" stroke-linecap="round" stroke-linejoin="round"/>
</svg>
