<svg width="16" height="16" viewBox="0 0 16 16" fill="none" xmlns="http://www.w3.org/2000/svg">
<path d="M10.869 2.33333C11.214 2.54084 11.4994 2.83407 11.6976 3.18453C11.8957 3.53499 11.9998 3.93075 11.9997 4.33333C11.9998 4.73592 11.8957 5.13168 11.6976 5.48214C11.4994 5.8326 11.214 6.12583 10.869 6.33333M14.6663 14V13.6C14.6663 12.1067 14.6663 11.36 14.3757 10.7893C14.12 10.2876 13.7121 9.87966 13.2103 9.624M6.33301 6.66667C6.63943 6.66667 6.94284 6.60631 7.22594 6.48905C7.50903 6.37179 7.76625 6.19992 7.98292 5.98325C8.19959 5.76658 8.37147 5.50935 8.48873 5.22626C8.60599 4.94317 8.66634 4.63975 8.66634 4.33333C8.66634 4.02692 8.60599 3.7235 8.48873 3.44041C8.37147 3.15731 8.19959 2.90009 7.98292 2.68342C7.76625 2.46675 7.50903 2.29488 7.22594 2.17761C6.94284 2.06035 6.63943 2 6.33301 2C5.71417 2 5.12068 2.24583 4.68309 2.68342C4.24551 3.121 3.99967 3.71449 3.99967 4.33333C3.99967 4.95217 4.24551 5.54566 4.68309 5.98325C5.12068 6.42083 5.71417 6.66667 6.33301 6.66667ZM1.33301 13.6V14H11.333V13.6C11.333 12.1067 11.333 11.36 11.0423 10.7893C10.7867 10.2876 10.3788 9.87966 9.87701 9.624C9.30634 9.33333 8.55967 9.33333 7.06634 9.33333H5.59967C4.10634 9.33333 3.35967 9.33333 2.78901 9.624C2.28726 9.87966 1.87933 10.2876 1.62367 10.7893C1.33301 11.36 1.33301 12.1067 1.33301 13.6Z" stroke="#2E56F5" stroke-width="1.5" stroke-linecap="round" stroke-linejoin="round"/>
</svg>
