<svg width="44" height="44" viewBox="0 0 44 44" fill="none" xmlns="http://www.w3.org/2000/svg">
<path d="M39.3686 22C39.3686 28.1872 25.448 33.2029 19.2731 33.2029C13.0983 33.2029 17.0074 28.1872 17.0074 22C17.0074 15.8128 13.0983 10.7971 19.2731 10.7971C25.448 10.7971 39.3686 15.8128 39.3686 22Z" fill="#ABABAB"/>
<path d="M14.2495 22C14.2495 26.4816 11.2147 30.1146 6.74211 30.1146C2.2695 30.1146 6.45757 26.4816 6.45757 22C6.45757 17.5184 2.2695 13.8854 6.74211 13.8854C11.2147 13.8854 14.2495 17.5184 14.2495 22Z" fill="#ABABAB"/>
<g filter="url(#filter0_i_1363_1749)">
<path d="M17.0074 22C17.0074 28.1872 13.0983 33.2029 19.2732 33.2029C22.9166 33.2029 29.2563 31.4566 33.8423 28.7539C31.2993 24.9107 24.7561 22.1368 17.0073 21.9801C17.0073 21.9867 17.0074 21.9934 17.0074 22Z" fill="#ABABAB"/>
</g>
<defs>
<filter id="filter0_i_1363_1749" x="15.7871" y="21.9801" width="18.0547" height="11.2228" filterUnits="userSpaceOnUse" color-interpolation-filters="sRGB">
<feFlood flood-opacity="0" result="BackgroundImageFix"/>
<feBlend mode="normal" in="SourceGraphic" in2="BackgroundImageFix" result="shape"/>
<feColorMatrix in="SourceAlpha" type="matrix" values="0 0 0 0 0 0 0 0 0 0 0 0 0 0 0 0 0 0 127 0" result="hardAlpha"/>
<feOffset/>
<feGaussianBlur stdDeviation="5"/>
<feComposite in2="hardAlpha" operator="arithmetic" k2="-1" k3="1"/>
<feColorMatrix type="matrix" values="0 0 0 0 0 0 0 0 0 0 0 0 0 0 0 0 0 0 0.25 0"/>
<feBlend mode="normal" in2="shape" result="effect1_innerShadow_1363_1749"/>
</filter>
</defs>
</svg>
