<svg width="32" height="32" viewBox="0 0 32 32" fill="none" xmlns="http://www.w3.org/2000/svg">
<g clip-path="url(#clip0_1363_7450)">
<path fill-rule="evenodd" clip-rule="evenodd" d="M7.04515 4.13028C6.27223 4.13028 5.53097 4.43732 4.98443 4.98385C4.4379 5.53039 4.13086 6.27165 4.13086 7.04457V9.48742C4.13086 9.65626 4.16412 9.82345 4.22873 9.97944C4.29334 10.1354 4.38805 10.2772 4.50744 10.3966C4.62683 10.5159 4.76856 10.6107 4.92455 10.6753C5.08054 10.7399 5.24773 10.7731 5.41657 10.7731C5.58542 10.7731 5.75261 10.7399 5.9086 10.6753C6.06459 10.6107 6.20632 10.5159 6.32571 10.3966C6.4451 10.2772 6.53981 10.1354 6.60442 9.97944C6.66903 9.82345 6.70229 9.65626 6.70229 9.48742V7.04457C6.70229 6.95363 6.73841 6.86643 6.80271 6.80213C6.86701 6.73783 6.95421 6.70171 7.04515 6.70171H9.488C9.65684 6.70171 9.82403 6.66845 9.98002 6.60384C10.136 6.53923 10.2778 6.44452 10.3971 6.32513C10.5165 6.20574 10.6112 6.06401 10.6758 5.90802C10.7405 5.75203 10.7737 5.58484 10.7737 5.41599C10.7737 5.24715 10.7405 5.07996 10.6758 4.92397C10.6112 4.76798 10.5165 4.62625 10.3971 4.50686C10.2778 4.38747 10.136 4.29276 9.98002 4.22815C9.82403 4.16354 9.65684 4.13028 9.488 4.13028H7.04515ZM10.8509 8.70742C9.668 8.70742 8.708 9.66742 8.708 10.8503V14.404C8.708 15.5869 9.668 16.5469 10.8509 16.5469H14.4046C15.5874 16.5469 16.5474 15.5869 16.5474 14.404V10.8503C16.5474 9.66742 15.5874 8.70742 14.4046 8.70742H10.8509ZM11.2794 13.9754V11.2789H13.976V13.9754H11.2794ZM21.2274 5.41599C21.2274 5.075 21.3629 4.74797 21.604 4.50686C21.8451 4.26574 22.1722 4.13028 22.5131 4.13028H24.956C25.7289 4.13028 26.4702 4.43732 27.0167 4.98385C27.5632 5.53039 27.8703 6.27165 27.8703 7.04457V9.48742C27.8703 9.82841 27.7348 10.1554 27.4937 10.3966C27.2526 10.6377 26.9256 10.7731 26.5846 10.7731C26.2436 10.7731 25.9166 10.6377 25.6754 10.3966C25.4343 10.1554 25.2989 9.82841 25.2989 9.48742V7.04457C25.2989 6.95363 25.2627 6.86643 25.1984 6.80213C25.1341 6.73783 25.0469 6.70171 24.956 6.70171H22.5131C22.1722 6.70171 21.8451 6.56625 21.604 6.32513C21.3629 6.08401 21.2274 5.75699 21.2274 5.41599ZM6.70229 22.5143C6.70229 22.1733 6.56683 21.8463 6.32571 21.6051C6.08459 21.364 5.75757 21.2286 5.41657 21.2286C5.07558 21.2286 4.74855 21.364 4.50744 21.6051C4.26632 21.8463 4.13086 22.1733 4.13086 22.5143V24.9571C4.13086 25.7301 4.4379 26.4713 4.98443 27.0178C5.53097 27.5644 6.27223 27.8714 7.04515 27.8714H9.488C9.82899 27.8714 10.156 27.736 10.3971 27.4948C10.6383 27.2537 10.7737 26.9267 10.7737 26.5857C10.7737 26.2447 10.6383 25.9177 10.3971 25.6766C10.156 25.4355 9.82899 25.3 9.488 25.3H7.04515C6.95421 25.3 6.86701 25.2639 6.80271 25.1996C6.73841 25.1353 6.70229 25.0481 6.70229 24.9571V22.5143ZM26.5846 21.2286C26.9256 21.2286 27.2526 21.364 27.4937 21.6051C27.7348 21.8463 27.8703 22.1733 27.8703 22.5143V24.9571C27.8703 25.7301 27.5632 26.4713 27.0167 27.0178C26.4702 27.5644 25.7289 27.8714 24.956 27.8714H22.5131C22.1722 27.8714 21.8451 27.736 21.604 27.4948C21.3629 27.2537 21.2274 26.9267 21.2274 26.5857C21.2274 26.2447 21.3629 25.9177 21.604 25.6766C21.8451 25.4355 22.1722 25.3 22.5131 25.3H24.956C25.0469 25.3 25.1341 25.2639 25.1984 25.1996C25.2627 25.1353 25.2989 25.0481 25.2989 24.9571V22.5143C25.2989 22.1733 25.4343 21.8463 25.6754 21.6051C25.9166 21.364 26.2436 21.2286 26.5846 21.2286ZM11.2794 19.7543C11.2794 19.4133 11.144 19.0863 10.9029 18.8451C10.6617 18.604 10.3347 18.4686 9.99372 18.4686C9.65272 18.4686 9.3257 18.604 9.08458 18.8451C8.84346 19.0863 8.708 19.4133 8.708 19.7543V22.0069C8.708 22.7166 9.284 23.2926 9.99372 23.2926H12.2463C12.5873 23.2926 12.9143 23.1571 13.1554 22.916C13.3965 22.6749 13.532 22.3478 13.532 22.0069C13.532 21.6659 13.3965 21.3388 13.1554 21.0977C12.9143 20.8566 12.5873 20.7211 12.2463 20.7211H11.2794V19.7543ZM13.7823 19.7543C13.7823 19.4133 13.9177 19.0863 14.1589 18.8451C14.4 18.604 14.727 18.4686 15.068 18.4686H16.0006C16.3416 18.4686 16.6686 18.604 16.9097 18.8451C17.1508 19.0863 17.2863 19.4133 17.2863 19.7543V22.0069C17.2863 22.3478 17.1508 22.6749 16.9097 22.916C16.6686 23.1571 16.3416 23.2926 16.0006 23.2926C15.6596 23.2926 15.3326 23.1571 15.0914 22.916C14.8503 22.6749 14.7149 22.3478 14.7149 22.0069V20.9903C14.4465 20.9136 14.2104 20.7517 14.0422 20.5291C13.8739 20.3064 13.7827 20.0351 13.7823 19.756V19.7543ZM21.0406 9.99314C21.0406 9.65214 20.9051 9.32512 20.664 9.084C20.4229 8.84288 20.0959 8.70742 19.7549 8.70742C19.4139 8.70742 19.0868 8.84288 18.8457 9.084C18.6046 9.32512 18.4691 9.65214 18.4691 9.99314V12.2457C18.4691 12.9554 19.0451 13.5314 19.7549 13.5314H22.0074C22.3484 13.5314 22.6754 13.396 22.9166 13.1548C23.1577 12.9137 23.2931 12.5867 23.2931 12.2457C23.2931 11.9047 23.1577 11.5777 22.9166 11.3366C22.6754 11.0955 22.3484 10.96 22.0074 10.96H21.0406V9.99314ZM18.4691 16C18.4691 15.659 18.6046 15.332 18.8457 15.0909C19.0868 14.8497 19.4139 14.7143 19.7549 14.7143H22.0074C22.3484 14.7143 22.6754 14.8497 22.9166 15.0909C23.1577 15.332 23.2931 15.659 23.2931 16V17.0954C23.2939 17.4204 23.1716 17.7337 22.9507 17.9721C22.7299 18.2105 22.4269 18.3565 22.1028 18.3806C21.7787 18.4047 21.4575 18.3052 21.2038 18.1021C20.9501 17.8989 20.7828 17.6072 20.7354 17.2857H19.7549C19.4139 17.2857 19.0868 17.1502 18.8457 16.9091C18.6046 16.668 18.4691 16.341 18.4691 16ZM21.0406 19.7543C21.0406 19.4133 20.9051 19.0863 20.664 18.8451C20.4229 18.604 20.0959 18.4686 19.7549 18.4686C19.4139 18.4686 19.0868 18.604 18.8457 18.8451C18.6046 19.0863 18.4691 19.4133 18.4691 19.7543V22.0069C18.4691 22.7166 19.0451 23.2926 19.7549 23.2926H22.0074C22.3484 23.2926 22.6754 23.1571 22.9166 22.916C23.1577 22.6749 23.2931 22.3478 23.2931 22.0069C23.2931 21.6659 23.1577 21.3388 22.9166 21.0977C22.6754 20.8566 22.3484 20.7211 22.0074 20.7211H21.0406V19.7543Z" fill="#ABABAB"/>
</g>
<defs>
<clipPath id="clip0_1363_7450">
<rect width="24" height="24" fill="white" transform="translate(4 4)"/>
</clipPath>
</defs>
</svg>
