<svg width="16" height="16" viewBox="0 0 16 16" fill="none" xmlns="http://www.w3.org/2000/svg">
<path d="M7.99967 1.3335C11.6817 1.3335 14.6663 4.31816 14.6663 8.00016C14.6663 11.6822 11.6817 14.6668 7.99967 14.6668C4.31767 14.6668 1.33301 11.6822 1.33301 8.00016C1.33301 4.31816 4.31767 1.3335 7.99967 1.3335ZM7.99967 2.66683C6.58519 2.66683 5.22863 3.22873 4.22844 4.22893C3.22824 5.22912 2.66634 6.58567 2.66634 8.00016C2.66634 9.41465 3.22824 10.7712 4.22844 11.7714C5.22863 12.7716 6.58519 13.3335 7.99967 13.3335C9.41416 13.3335 10.7707 12.7716 11.7709 11.7714C12.7711 10.7712 13.333 9.41465 13.333 8.00016C13.333 6.58567 12.7711 5.22912 11.7709 4.22893C10.7707 3.22873 9.41416 2.66683 7.99967 2.66683ZM7.99967 4.00016C8.16296 4.00018 8.32057 4.06013 8.44259 4.16864C8.56461 4.27715 8.64257 4.42666 8.66167 4.58883L8.66634 4.66683V7.72416L10.471 9.52883C10.5906 9.6488 10.66 9.80979 10.6652 9.97909C10.6703 10.1484 10.6109 10.3133 10.4988 10.4403C10.3868 10.5674 10.2306 10.647 10.062 10.6631C9.89341 10.6792 9.725 10.6304 9.59101 10.5268L9.52834 10.4715L7.52834 8.4715C7.42473 8.36779 7.35818 8.23283 7.33901 8.0875L7.33301 8.00016V4.66683C7.33301 4.49002 7.40325 4.32045 7.52827 4.19543C7.65329 4.0704 7.82286 4.00016 7.99967 4.00016Z" fill="#2E56F5"/>
</svg>
