<svg width="76" height="76" viewBox="0 0 76 76" fill="none" xmlns="http://www.w3.org/2000/svg">
<path d="M67.4827 21.7815L54.2183 8.51418C53.7772 8.07299 53.2535 7.72301 52.6772 7.48423C52.1008 7.24546 51.483 7.12256 50.8592 7.12256C50.2353 7.12256 49.6175 7.24546 49.0412 7.48423C48.4648 7.72301 47.9411 8.07299 47.5 8.51418L10.8924 45.1248C10.4494 45.5643 10.0981 46.0874 9.85912 46.6639C9.62009 47.2403 9.49803 47.8585 9.50002 48.4825V61.7498C9.50002 63.0096 10.0005 64.2178 10.8913 65.1086C11.7821 65.9994 12.9902 66.4998 14.25 66.4998H27.5174C28.1414 66.5018 28.7596 66.3797 29.336 66.1407C29.9124 65.9017 30.4355 65.5505 30.875 65.1075L67.4827 28.4998C67.9239 28.0587 68.2738 27.535 68.5126 26.9587C68.7514 26.3823 68.8743 25.7645 68.8743 25.1407C68.8743 24.5168 68.7514 23.899 68.5126 23.3227C68.2738 22.7463 67.9239 22.2226 67.4827 21.7815ZM15.2327 47.4998L42.0553 20.6772L47.0072 25.632L20.1875 52.4517L15.2327 47.4998ZM14.25 53.2325L22.7674 61.7498H14.25V53.2325ZM28.5 60.7672L23.5452 55.8123L50.3678 28.9897L55.3197 33.9445L28.5 60.7672Z" fill="#2E56F5"/>
</svg>
