<svg width="28" height="28" viewBox="0 0 28 28" fill="none" xmlns="http://www.w3.org/2000/svg">
<path d="M4.66699 8.16667H23.3337M5.83366 8.16667L7.00033 22.1667C7.00033 22.7855 7.24616 23.379 7.68374 23.8166C8.12133 24.2542 8.71482 24.5 9.33366 24.5H18.667C19.2858 24.5 19.8793 24.2542 20.3169 23.8166C20.7545 23.379 21.0003 22.7855 21.0003 22.1667L22.167 8.16667M10.5003 8.16667V4.66667C10.5003 4.35725 10.6232 4.0605 10.842 3.84171C11.0608 3.62292 11.3576 3.5 11.667 3.5H16.3337C16.6431 3.5 16.9398 3.62292 17.1586 3.84171C17.3774 4.0605 17.5003 4.35725 17.5003 4.66667V8.16667M11.667 14L16.3337 18.6667M16.3337 14L11.667 18.6667" stroke="#FF0000" stroke-width="2" stroke-linecap="round" stroke-linejoin="round"/>
</svg>
